<svg xmlns="http://www.w3.org/2000/svg" viewBox="0 0 64 64" role="img" aria-label="Diagrama Estelar">
  <defs>
    <linearGradient id="hr" x1="10" y1="10" x2="54" y2="54" gradientUnits="userSpaceOnUse">
      <stop offset="0" stop-color="#7ea8ff"/>
      <stop offset="0.42" stop-color="#fff2a8"/>
      <stop offset="0.72" stop-color="#ffb05a"/>
      <stop offset="1" stop-color="#ff5d4f"/>
    </linearGradient>
    <radialGradient id="glow" cx="30%" cy="22%" r="70%">
      <stop offset="0" stop-color="#243a78"/>
      <stop offset="0.55" stop-color="#0b1224"/>
      <stop offset="1" stop-color="#170815"/>
    </radialGradient>
    <filter id="soft">
      <feGaussianBlur stdDeviation="1.15"/>
    </filter>
  </defs>
  <rect width="64" height="64" rx="14" fill="url(#glow)"/>
  <path d="M14 10v42h42" fill="none" stroke="#eaf0ff" stroke-width="2.1" stroke-linecap="round" opacity="0.82"/>
  <path d="M17 18c8 2 13 7 17 14 4 7 9 13 19 15" fill="none" stroke="url(#hr)" stroke-width="8" stroke-linecap="round" opacity="0.25" filter="url(#soft)"/>
  <path d="M17 18c8 2 13 7 17 14 4 7 9 13 19 15" fill="none" stroke="url(#hr)" stroke-width="3.4" stroke-linecap="round"/>
  <circle cx="17" cy="18" r="2.7" fill="#8fb5ff"/>
  <circle cx="29" cy="28" r="2.2" fill="#f7fbff"/>
  <circle cx="39" cy="40" r="2.5" fill="#ffe27a"/>
  <circle cx="53" cy="47" r="3" fill="#ff6d55"/>
  <path d="M48 12l1.6 3.5 3.8.4-2.8 2.5.8 3.7-3.4-1.9-3.3 1.9.7-3.7-2.8-2.5 3.8-.4L48 12Z" fill="#fff6bf"/>
  <text x="17" y="58" fill="#eaf0ff" font-family="Arial, Helvetica, sans-serif" font-size="11" font-weight="800">HR</text>
</svg>
